<svg width="1594" height="911" viewBox="0 0 1594 911" fill="none" xmlns="http://www.w3.org/2000/svg">
<g clip-path="url(#clip0_72_3318)">
<path d="M623.452 309.857L621.615 421.955C621.444 433.097 615.641 443.356 606.189 449.258L501.069 514.954C490.711 521.443 477.587 521.639 467.057 515.444L423.57 489.905L264.163 396.294C242.86 383.805 242.468 353.148 263.453 340.122L291.196 322.859C301.481 316.468 314.458 316.248 324.938 322.32L447.566 393.11L465.147 403.272C475.407 409.198 488.067 409.149 498.278 403.125L507.117 397.885C517.671 391.641 523.866 380.059 523.205 367.816C522.886 362.331 521.221 357.115 518.454 352.561C515.687 348.006 511.818 344.138 507.093 341.346L328.979 236.324C318.964 230.398 306.549 230.251 296.387 235.883L61.3181 366.273C45.2795 375.162 25.0538 369.187 16.4346 353.026L4.3138 330.327C-3.93811 314.852 1.42441 295.63 16.4835 286.668L293.914 121.483C304.076 115.435 316.711 115.312 326.971 121.165L606.899 280.816C617.306 286.741 623.648 297.883 623.452 309.857Z" fill="#090F21"/>
<path d="M607.438 624.409L330.007 789.594C319.845 795.642 307.21 795.74 296.951 789.888L17.0223 630.237C6.61555 624.311 0.273573 613.17 0.444978 601.196L2.28146 489.097C2.45286 477.98 8.25613 467.696 17.7079 461.795L122.828 396.098C133.186 389.609 146.31 389.438 156.839 395.633L182.795 410.863L359.734 514.759C381.037 527.247 381.429 557.904 360.444 570.955L332.701 588.193C322.416 594.584 309.439 594.805 298.958 588.732L232.698 550.46L158.749 507.78C148.49 501.854 135.83 501.903 125.619 507.952L116.78 513.167C106.226 519.411 100.031 531.018 100.692 543.261C101.011 548.721 102.676 553.961 105.443 558.516C108.21 563.046 112.078 566.939 116.804 569.706L294.918 674.753C304.933 680.654 317.348 680.825 327.51 675.169L562.579 544.779C578.617 535.891 598.843 541.865 607.462 558.051L619.583 580.75C627.835 596.201 622.472 615.422 607.413 624.409H607.438Z" fill="#2565F0"/>
</g>
<path d="M818.449 293.514H840.946V332.08H818.449L801.309 373.247L760.141 390.388L718.973 373.247L701.986 332.08L705.353 311.725L720.045 340.956L744.225 351.21L769.017 340.956L779.271 316.623V261.222L809.42 235.052L818.449 255.254V293.514ZM726.013 273.772L745.602 253.876L765.497 273.772L745.602 293.514L726.013 273.772ZM920.833 332.08H826.254V292.748H920.833V332.08ZM1000.41 332.08H905.835V292.748H1000.41V332.08ZM1076.47 332.08H985.416V293.514H1013.42V263.824L1043.11 235.052L1051.84 255.254V293.514H1076.47V332.08ZM1023.37 368.656L1043.42 348.761L1063.16 368.656L1044.49 388.551L1023.37 368.656ZM998.883 368.656L1018.78 348.761L1038.52 368.656L1018.78 388.551L998.883 368.656ZM1158.04 332.08H1063.47V292.748H1158.04V332.08ZM1237.63 332.08H1143.05V292.748H1237.63V332.08ZM1304.96 293.514L1293.79 273.772H1269.76L1281.24 293.514H1304.96ZM1343.84 293.514H1359.45V332.08H1222.63V293.514H1252.01L1235.18 264.742L1261.19 235.052H1315.06L1343.84 284.637V293.514ZM1284.15 205.822L1303.89 185.774L1323.94 205.822L1303.89 225.717L1284.15 205.822ZM1259.51 205.822L1279.41 185.774L1301.14 205.822L1279.41 225.717L1259.51 205.822ZM1440.25 332.08H1345.67V292.748H1440.25V332.08ZM1519.83 332.08H1425.25V292.748H1519.83V332.08ZM1550.44 332.08H1504.37V293.514H1530.24V263.824L1559.93 235.052L1568.8 255.254V293.514L1550.44 332.08ZM1545.39 368.656L1565.13 348.761L1584.87 368.656L1565.13 388.551L1545.39 368.656ZM1520.6 368.656L1540.34 348.761L1560.23 368.656L1540.34 388.551L1520.6 368.656Z" fill="#2565F0"/>
<path d="M894.069 687.249C882.316 687.249 872.717 686.269 865.273 684.31C857.829 682.156 852.246 679.217 848.524 675.495C844.802 671.773 842.648 667.562 842.06 662.86C841.472 658.159 841.178 652.086 841.178 644.643H847.055C848.622 654.241 852.736 661.783 859.396 667.268C866.057 672.753 875.655 675.495 888.192 675.495C899.358 675.495 907.488 673.536 912.581 669.619C917.87 665.701 920.514 660.804 920.514 654.927C920.514 649.05 918.262 644.153 913.756 640.235C909.446 636.121 902.884 632.203 894.069 628.482L876.439 621.136C865.273 616.63 856.556 611.341 850.287 605.268C844.215 599 841.178 591.066 841.178 581.468C841.178 569.127 845.782 559.724 854.989 553.259C864.196 546.599 875.753 543.269 889.661 543.269C900.827 543.269 910.034 544.346 917.282 546.501C924.53 548.46 930.015 551.3 933.737 555.022C937.459 558.744 939.614 562.956 940.201 567.657C940.789 572.359 941.083 578.431 941.083 585.875H935.206C933.639 576.277 929.525 568.735 922.865 563.25C916.401 557.765 907.292 555.022 895.538 555.022C885.939 555.022 878.594 556.981 873.5 560.899C868.603 564.817 866.154 569.714 866.154 575.591C866.154 580.684 868.211 585.386 872.325 589.695C876.439 593.809 882.218 597.433 889.661 600.567L907.292 607.913C919.829 613.006 929.329 618.589 935.794 624.662C942.258 630.734 945.49 638.864 945.49 649.05C945.49 661.391 940.593 670.892 930.799 677.552C921.004 684.017 908.761 687.249 894.069 687.249ZM1011.98 687.249C1007.87 687.249 1003.36 686.563 998.466 685.192C993.765 684.017 989.161 681.862 984.656 678.728C980.15 675.593 976.428 671.382 973.49 666.093C970.747 660.804 969.376 654.143 969.376 646.112C969.376 635.338 972.804 627.012 979.66 621.136C986.712 615.259 995.919 611.145 1007.28 608.794C1018.84 606.248 1031.18 604.975 1044.3 604.975H1053.12C1053.12 591.262 1051.75 580.88 1049.01 573.828C1046.26 566.58 1042.54 561.683 1037.84 559.136C1033.33 556.394 1028.14 555.022 1022.27 555.022C1014.04 555.022 1007.09 556.785 1001.4 560.311C995.919 563.837 992.099 570.4 989.945 579.999H976.722C976.722 574.905 977.016 570.204 977.603 565.894C978.191 561.389 980.346 557.275 984.068 553.553C987.79 549.831 993.862 547.187 1002.29 545.62C1010.71 544.053 1019.33 543.269 1028.14 543.269C1034.8 543.269 1041.17 544.053 1047.24 545.62C1053.51 547.187 1059 550.125 1063.7 554.435C1068.59 558.548 1072.41 564.719 1075.16 572.946C1078.1 580.978 1079.56 591.654 1079.56 604.975V684.31H1064.87L1054.59 671.088H1053.12C1050.18 674.81 1045.38 678.434 1038.72 681.96C1032.06 685.486 1023.15 687.249 1011.98 687.249ZM1025.21 674.026C1032.45 674.026 1038.13 672.263 1042.25 668.737C1046.56 665.015 1050.18 660.902 1053.12 656.396V616.728H1044.3C1029.61 616.728 1018.05 619.471 1009.63 624.956C1001.4 630.245 997.291 637.297 997.291 646.112C997.291 655.71 1000.13 662.762 1005.81 667.268C1011.49 671.773 1017.96 674.026 1025.21 674.026ZM1126.12 684.31V557.961H1105.55V546.207H1126.12V537.392C1126.12 523.68 1128.67 513.298 1133.76 506.246C1138.85 498.998 1145.32 494.1 1153.15 491.554C1161.19 488.811 1169.32 487.44 1177.54 487.44C1183.62 487.44 1188.71 487.832 1192.82 488.615C1197.13 489.203 1200.36 490.28 1202.52 491.848C1204.67 493.415 1206.54 495.276 1208.1 497.43C1209.67 499.585 1211.24 502.132 1212.8 505.07L1203.99 512.416C1201.05 507.911 1197.23 504.58 1192.53 502.426C1187.83 500.271 1182.34 499.193 1176.07 499.193C1169.41 499.193 1163.83 501.936 1159.33 507.421C1154.82 512.906 1152.57 522.896 1152.57 537.392V546.207H1193.7V557.961H1152.57V684.31H1126.12ZM1260.38 687.249C1250 687.249 1241.48 684.213 1234.82 678.14C1228.35 672.067 1225.12 662.371 1225.12 649.05V557.961H1204.55V546.207H1225.12V519.762L1239.81 502.132H1251.56V546.207H1286.83V557.961H1251.56V649.05C1251.56 657.865 1253.23 664.525 1256.56 669.031C1260.09 673.341 1265.28 675.495 1272.13 675.495C1277.23 675.495 1281.44 674.908 1284.77 673.732C1288.1 672.557 1291.23 671.186 1294.17 669.619L1297.11 675.495C1293.98 677.846 1289.67 680.393 1284.18 683.135C1278.7 685.878 1270.76 687.249 1260.38 687.249ZM1328.52 743.078V734.263C1337.53 734.263 1345.17 732.206 1351.44 728.092C1357.9 724.174 1363.48 715.947 1368.19 703.41L1374.06 687.249L1327.05 572.653C1324.11 565.209 1319.8 559.626 1314.12 555.904C1308.63 552.182 1302.17 549.929 1294.73 549.146V543.269H1319.7C1328.52 543.269 1335.77 545.326 1341.45 549.44C1347.32 553.553 1351.83 559.332 1354.96 566.776L1388.46 648.169L1425.48 546.207H1440.18L1382.88 703.41C1378.96 714.184 1374.75 722.411 1370.24 728.092C1365.93 733.773 1361.04 737.691 1355.55 739.846C1350.26 742 1344.19 743.078 1337.33 743.078H1328.52Z" fill="#090F21"/>
<defs>
<clipPath id="clip0_72_3318">
<rect width="623.031" height="677.342" fill="white" transform="translate(0.444977 116.855)"/>
</clipPath>
</defs>
</svg>
